Coordinates
version=1
nRows=19
nColumns=34
inDegrees=yes

Units are S.I. units (second, meters, Newtons, ...)
If the header above contains a line with 'inDegrees', this indicates whether rotational values are in degrees (yes) or radians (no).

endheader
time	pelvis_tilt	pelvis_list	pelvis_rotation	pelvis_tx	pelvis_ty	pelvis_tz	hip_flexion_r	hip_adduction_r	hip_rotation_r	knee_angle_r	ankle_angle_r	subtalar_angle_r	mtp_angle_r	hip_flexion_l	hip_adduction_l	hip_rotation_l	knee_angle_l	ankle_angle_l	subtalar_angle_l	mtp_angle_l	lumbar_extension	lumbar_bending	lumbar_rotation	arm_flex_r	arm_add_r	arm_rot_r	elbow_flex_r	pro_sup_r	arm_flex_l	arm_add_l	arm_rot_l	elbow_flex_l	pro_sup_l
      2.00000000	     -0.07397918	      1.56387814	     -1.63351788	     -0.82210098	      0.91778976	      0.22246875	     25.76460793	      0.13671484	     -2.25620520	    -44.14578647	      0.56080328	     -9.64427436	     17.47321591	     -2.55493536	      5.41985143	     -0.85073750	     -9.51787381	     10.67807729	      0.85115237	      3.70139357	     -4.70639840	     -1.20396885	     -4.77914017	     -8.42403675	    -16.90124708	      5.46680569	     24.61495096	     90.00000000	     -5.54738098	    -18.27146550	      8.47059286	     33.27174137	     90.00000000
      2.01000000	      0.16602574	      1.30112925	     -1.40517208	     -0.80966856	      0.91747812	      0.22293803	     25.81362780	      0.31889374	     -2.57665117	    -40.78796695	      0.48317661	    -10.14876713	     17.29594650	     -4.10672093	      5.08796613	     -0.75399633	     -8.74160344	     11.00235020	      1.18679284	      3.79450127	     -5.00829957	     -0.87066564	     -5.19568948	     -8.43123931	    -16.74284059	      5.03983363	     23.84288584	     90.00000000	     -5.13690261	    -18.51212162	      8.53496086	     33.75665375	     90.00000000
      2.02000000	      0.12558771	      1.25353580	     -1.27129629	     -0.79745891	      0.91648434	      0.22328602	     26.18007653	      0.28759393	     -2.78240752	    -37.41294140	      0.34433269	    -10.00133182	     17.12875095	     -5.33322470	      5.00788494	     -0.64170714	     -7.95225562	     11.23515109	      1.48976488	      3.82774706	     -5.03979418	     -0.75489205	     -5.47786475	     -8.66066411	    -16.67020282	      4.85908863	     23.50989682	     90.00000000	     -4.76442275	    -18.73977882	      8.47783563	     34.28864676	     90.00000000
      2.03000000	      0.55339656	      1.16753708	     -1.13104491	     -0.78498758	      0.91606040	      0.22370032	     25.82142316	      0.29045864	     -3.02582886	    -33.72143828	      0.20240574	     -9.34703030	     16.89650316	     -7.06185974	      4.87234326	     -0.69567851	     -7.20761144	     11.46040514	      1.79817859	      3.88849048	     -5.59595070	     -0.62220338	     -5.78806830	     -8.59990267	    -16.49364350	      4.60808387	     22.88010976	     90.00000000	     -4.32308586	    -18.95906774	      8.57891618	     34.81338409	     90.00000000
      2.04000000	      1.49164781	      1.50193966	     -0.95573979	     -0.77253042	      0.91645316	      0.22408653	     24.89401256	     -0.18701041	     -3.29724349	    -30.07407497	      0.35149876	     -8.25274152	     16.69151300	     -9.51496621	      5.19789209	     -0.30923507	     -6.07505073	     11.18980412	      1.86134724	      3.85262507	     -6.78042028	     -0.96678105	     -6.16245904	     -8.50786871	    -16.30790504	      4.39526018	     22.39457047	     90.00000000	     -3.70006566	    -19.25843085	      8.52141911	     35.14230300	     90.00000000
      2.05000000	      1.70822314	      1.53967547	     -0.82638399	     -0.75993124	      0.91535331	      0.22469878	     24.63857313	     -0.26995941	     -3.50582723	    -26.34367485	      0.33559810	     -6.71843491	     16.45625941	    -10.96933335	      5.18312087	     -0.15499688	     -5.44044501	     11.31893815	      1.86739296	      3.86665491	     -7.08831455	     -0.97533967	     -6.43347770	     -8.62945066	    -16.18926579	      4.31280061	     22.02029298	     90.00000000	     -3.31072580	    -19.48887574	      8.52083751	     35.61743306	     90.00000000
      2.06000000	      1.02455579	      1.23896209	     -0.71264552	     -0.74737396	      0.91236846	      0.22576561	     25.32647002	      0.12498371	     -3.51342246	    -22.70477221	     -0.00577988	     -5.70206785	     16.25408144	    -11.30481966	      4.75237957	     -0.19801552	     -5.13849687	     11.82886293	      2.02500646	      4.00536873	     -6.34609993	     -0.63919704	     -6.63515169	     -8.91916831	    -16.10666965	      4.22019433	     21.96902231	     90.00000000	     -3.12647228	    -19.67220264	      8.46816943	     36.07034165	     90.00000000
      2.07000000	      0.95255056	      1.30936223	     -0.63838054	     -0.73442394	      0.91057239	      0.22664375	     25.28770375	      0.09648296	     -3.54448143	    -19.14926425	     -0.19544386	     -4.31652076	     16.07590333	    -12.38615616	      4.73115519	     -0.27341856	     -4.68030617	     12.07463130	      2.48619089	      4.13787660	     -6.26031128	     -0.70771726	     -6.85941703	     -9.05282724	    -16.00382416	      4.05735382	     21.63153439	     90.00000000	     -2.83250833	    -19.86653013	      8.46136901	     36.35761315	     90.00000000
      2.08000000	      1.37954769	      1.37602676	     -0.49610200	     -0.72140122	      0.90947067	      0.22726671	     24.72560384	     -0.04336074	     -4.15476968	    -15.90207621	      0.19952768	     -2.17272691	     15.75180392	    -14.00456739	      4.69279486	     -0.28048072	     -4.19945436	     12.13544990	      3.02721146	      4.36378102	     -6.78169250	     -0.73402546	     -7.09479462	     -9.07662694	    -15.85929713	      3.95753617	     21.13384924	     90.00000000	     -2.38819654	    -20.03740552	      8.60646050	     36.58096161	     90.00000000
      2.09000000	      1.47386996	      1.41717351	     -0.34580756	     -0.70843285	      0.90783191	      0.22813979	     24.48604034	     -0.07909159	     -4.47410754	    -12.88615790	      0.56719660	     -0.51473464	     15.35171505	    -15.13679934	      4.59558519	     -0.12157008	     -3.96375231	     12.26457338	      3.31128894	      4.58292737	     -6.91388394	     -0.76191476	     -7.34716729	     -9.07887856	    -15.72210352	      3.80607255	     20.78125696	     90.00000000	     -2.01694923	    -20.20922635	      8.70890533	     36.75068750	     90.00000000
      2.10000000	      1.50210226	      1.43749323	     -0.20694189	     -0.69533126	      0.90605180	      0.22903994	     24.40407912	     -0.07225277	     -4.99893665	    -10.35602455	      0.95768148	      1.11125376	     14.74362115	    -16.09117734	      4.47895527	     -0.00271267	     -3.92723574	     12.39039353	      3.56971408	      4.89244996	     -6.95199095	     -0.74621135	     -7.57166651	     -9.19202781	    -15.62882893	      3.93414635	     20.57724417	     90.00000000	     -1.64078767	    -20.33087639	      8.89764914	     36.78436961	     90.00000000
      2.11000000	      1.27680904	      1.54682079	     -0.04925755	     -0.68237525	      0.90383179	      0.22980637	     24.62540577	     -0.12664284	     -5.11761247	     -8.23950024	      1.09364198	      1.94238704	     14.58241659	    -16.63569419	      4.45544563	      0.28155488	     -4.13413797	     12.55166502	      3.75586563	      5.00334249	     -6.71679959	     -0.81173086	     -7.84266099	     -9.31948296	    -15.54548156	      3.88819144	     20.57259269	     90.00000000	     -1.38104688	    -20.41917143	      8.90243478	     36.90845986	     90.00000000
      2.12000000	      1.33047684	      1.48814665	      0.29901238	     -0.66902240	      0.90234062	      0.23039051	     24.59433992	     -0.13730862	     -6.13401787	     -6.74224745	      1.11596129	      3.59107457	     14.09527305	    -17.36996226	      4.19093527	      0.45460478	     -4.56557037	     12.55980682	      4.10233836	      5.35994819	     -6.75154724	     -0.67497761	     -8.28327973	     -9.22179987	    -15.41645967	      3.80649392	     19.99472795	     90.00000000	     -1.04774815	    -20.46768642	      9.09849932	     36.73154925	     90.00000000
      2.13000000	      1.36478347	      1.46678310	      0.62080475	     -0.65556968	      0.90086348	      0.23107964	     24.59496825	     -0.15153280	     -6.91438445	     -5.79280058	      1.55655641	      4.93895561	     13.38179248	    -17.99111303	      3.96589694	      0.58462144	     -5.16782560	     12.58403687	      4.47711048	      6.01209717	     -6.75344083	     -0.56736083	     -8.61991449	     -9.21991924	    -15.30701727	      3.96893179	     19.58572514	     90.00000000	     -0.71608319	    -20.48796368	      9.33554060	     36.53960043	     90.00000000
      2.14000000	      1.25185441	      1.56425603	      0.73594410	     -0.64187814	      0.89919339	      0.23211649	     24.75388855	     -0.15241531	     -7.05173479	     -5.30235669	      1.63679742	      5.03891035	     13.32122914	    -18.43427918	      3.92964917	      0.54486702	     -5.81211387	     12.49337996	      4.53045642	      6.07476900	     -6.56005824	     -0.63743737	     -8.76528490	     -9.46689916	    -15.22934413	      3.96614498	     19.78111707	     90.00000000	     -0.63038018	    -20.51380229	      9.27695132	     36.72407493	     90.00000000
      2.15000000	      1.40831494	      1.36188382	      1.09810114	     -0.62765811	      0.89818525	      0.23300402	     24.42680854	      0.05698880	     -7.62929998	     -5.05512721	      1.58899746	      5.15004814	     12.90194325	    -19.07413270	      3.45133309	      0.49806124	     -6.65876849	     12.24662415	      5.19615694	      6.50509780	     -6.60771976	     -0.32103924	     -9.23620480	     -9.26197813	    -15.11166405	      3.92106184	     19.07888213	     90.00000000	     -0.49549694	    -20.41957260	      9.24490023	     36.31123373	     90.00000000
      2.16000000	      1.41722774	      1.35485976	      1.38457793	     -0.61341770	      0.89693874	      0.23370727	     24.39359653	      0.05977687	     -7.87702046	     -5.54650585	      1.77035800	      4.94341802	     12.71811184	    -19.49804801	      3.21917202	      0.54372244	     -7.58325266	     11.85212035	      5.62838317	      6.77088417	     -6.50785648	     -0.21726413	     -9.54575616	     -9.40339119	    -15.08459772	      3.95938159	     19.10523018	     90.00000000	     -0.51845687	    -20.32592484	      9.22428513	     36.36668957	     90.00000000
      2.17000000	      1.47106885	      1.17794604	      1.63136672	     -0.59855426	      0.89577066	      0.23464444	     24.30088851	      0.25790784	     -8.09093019	     -6.52117556	      1.99661083	      4.58642578	     11.68731080	    -19.86366551	      2.76007008	      0.01427076	     -8.75033484	     11.49124642	      6.85343691	      8.29878161	     -6.33846514	      0.07128901	     -9.81109399	     -9.39152123	    -15.10642802	      4.79609445	     18.58743998	     90.00000000	     -0.63147044	    -20.22451382	      9.11699773	     36.26628809	     90.00000000
      2.18000000	      1.50521743	      1.14291458	      1.79260779	     -0.58340766	      0.89458916	      0.23562921	     24.28389458	      0.32667173	     -8.07021959	     -7.99435994	      2.21994148	      4.09138337	     11.61534880	    -20.25075328	      2.50439129	     -0.12882667	     -9.84790578	     10.79006081	      7.00892816	      8.41819136	     -6.13824456	      0.21273271	     -9.96993935	     -9.68073099	    -15.14329666	      4.72842591	     18.90989665	     90.00000000	     -0.91887279	    -20.11604276	      9.03032952	     36.47636732	     90.00000000
